<svg width="383" height="383" viewBox="0 0 383 383" fill="none" xmlns="http://www.w3.org/2000/svg">
<circle cx="191.5" cy="191.5" r="191.5" fill="#191919"/>
<mask id="path-2-outside-1_209_7" maskUnits="userSpaceOnUse" x="36" y="40" width="222" height="211" fill="black">
<rect fill="white" x="36" y="40" width="222" height="211"/>
<path d="M44 58.9457L56.7935 51.8778L57.7969 52.0769C61.2252 50.2851 63.9428 48.5928 65.9496 47L68.2073 47.3982C68.6254 47.3982 69.1689 47.365 69.8378 47.2986C70.1723 47.2986 70.4232 47.2986 70.5904 47.2986C71.5102 47.2986 72.3046 47.5641 72.9735 48.095C73.6424 48.7587 73.9769 49.3891 73.9769 49.9864L73.7261 53.371V58.3484C72.9735 61.733 72.5972 63.8899 72.5972 64.819C72.5972 66.1463 72.8481 68.1041 73.3498 70.6923L69.4616 74.5747L66.0751 74.0769L66.5768 76.7647V79.8507L67.3293 81.6425H67.9564L70.3395 80.2489C71.2593 81.2443 71.7192 82.0407 71.7192 82.638C71.7192 82.8371 71.6356 83.2353 71.4684 83.8326C71.2175 84.4299 71.0921 84.9276 71.0921 85.3258L71.4684 105.335L71.2175 109.516C71.1339 114.228 70.8831 116.716 70.465 116.982L67.4547 119.172C67.0367 119.504 66.8276 119.968 66.8276 120.566C66.8276 121.561 67.7474 122.722 69.587 124.05C69.8378 125.443 70.5068 127.003 71.5938 128.729L70.5904 132.213L70.9667 135.398L70.7158 140.475C71.0503 143.926 71.2175 146.514 71.2175 148.24L72.9735 148.937V150.828L73.8515 151.525C77.6979 150.264 79.872 149.468 80.3737 149.136C85.2235 146.348 88.3591 144.623 89.7806 143.959L90.4078 144.258L94.1706 140.674L112.859 125.145L114.615 121.959L127.659 108.719C128.997 107.326 130.544 105.998 132.3 104.738C133.554 103.676 135.687 101.585 138.697 98.4661L137.192 96.6742V96.5747C138.53 94.2519 141.833 90.6018 147.101 85.6244L149.233 85.1267C149.484 83.8658 150.362 82.3062 151.867 80.448L154.375 77.0633L156.507 74.5747L159.894 69.6968C162.319 67.7722 164.409 65.6154 166.165 63.2262C168.005 60.7707 169.426 58.9125 170.43 57.6516C172.688 57.3861 174.067 57.0875 174.569 56.7557L177.328 55.0633C179.753 53.6697 181.091 52.9065 181.342 52.7738C181.509 52.641 182.136 52.5415 183.223 52.4751C184.06 52.4751 185.188 52.0106 186.61 51.0814C188.366 49.9532 189.871 49.3891 191.125 49.3891L192.129 50.7828V50.8824C192.129 51.2805 191.251 52.4751 189.495 54.4661C187.822 57.187 186.944 58.6139 186.861 58.7466C186.861 58.7466 185.523 59.6425 182.847 61.4344C179.168 65.1508 177.036 67.4072 176.45 68.2036C175.28 70.1282 174.151 71.6214 173.064 72.6833L165.413 72.086L165.036 76.4661L167.169 77.1629C167.169 78.822 166.667 80.1825 165.664 81.2443C164.911 82.1071 163.615 83.2353 161.775 84.629C161.525 85.5581 161.065 86.2549 160.396 86.7195C159.476 87.5158 158.556 88.3122 157.636 89.1086L153.623 91.4977C152.536 93.8869 151.909 95.2142 151.741 95.4796C151.574 95.6787 150.78 96.1433 149.358 96.8733C149.358 98.1342 149.191 98.9638 148.856 99.362C148.522 99.8929 147.184 100.922 144.843 102.448C140.662 105.766 135.979 110.279 130.795 115.986L124.022 121.86C120.51 125.576 117.96 128.065 116.371 129.326L115.493 132.113C113.486 133.042 112.274 133.706 111.856 134.104C111.438 134.436 110.058 136.161 107.717 139.281C105.375 140.475 104.037 141.205 103.703 141.471C103.369 141.736 102.909 142.599 102.323 144.059L98.9368 144.357C98.1006 145.22 97.5571 145.784 97.3062 146.05C96.052 147.178 95.4248 147.875 95.4248 148.14C95.4248 148.207 95.4666 148.306 95.5503 148.439L95.6757 148.837L107.591 160.186C110.183 162.575 111.479 164.732 111.479 166.656C111.479 167.054 111.438 167.552 111.354 168.149C113.194 168.149 114.531 168.216 115.368 168.348C116.287 168.548 117.751 169.477 119.758 171.136C121.764 172.662 123.186 174.089 124.022 175.416C125.109 175.483 126.071 175.748 126.907 176.213C130.084 178.071 131.673 179.63 131.673 180.891C131.673 181.555 131.297 182.385 130.544 183.38C131.798 184.309 133.68 185.305 136.188 186.367L139.826 188.357L142.711 188.955C142.961 188.689 143.923 189.386 145.595 191.045H148.229C150.738 193.302 154.375 195.824 159.141 198.611L174.945 207.57L178.959 209.362C178.875 209.959 178.833 210.49 178.833 210.955C178.833 212.083 179.502 212.747 180.84 212.946C182.262 213.145 183.391 213.377 184.227 213.643V215.434C184.645 215.7 185.815 215.998 187.739 216.33C189.495 216.861 191.627 217.326 194.135 217.724C196.309 218.122 198.233 218.952 199.905 220.213C209.187 224.659 213.953 226.982 214.204 227.181C214.789 227.579 215.249 228.575 215.583 230.167C218.008 230.632 220.141 231.296 221.98 232.158L224.614 230.367C226.621 231.097 229.297 231.727 232.641 232.258C235.986 232.789 238.829 233.054 241.17 233.054C241.254 233.054 241.421 233.054 241.672 233.054C247.525 232.391 250.452 232.059 250.452 232.059C250.619 232.059 250.995 232.324 251.581 232.855L251.957 233.652C252.459 236.704 248.57 238.928 240.292 240.321L238.286 242.412C235.861 242.544 234.272 242.744 233.519 243.009C233.268 243.075 231.972 243.673 229.631 244.801L226.872 244.502C224.53 244.303 223.193 244.17 222.858 244.104C222.607 244.038 221.938 243.673 220.851 243.009L216.336 243.507C213.911 241.914 212.113 240.819 210.943 240.222C210.19 239.757 207.974 238.828 204.295 237.434C202.121 236.439 200.323 235.775 198.902 235.443C197.815 235.244 196.059 234.581 193.634 233.452C190.874 232.125 189.244 231.428 188.742 231.362C186.401 230.499 185.063 229.902 184.728 229.57L181.969 227.181L179.962 226.385C178.206 224.991 176.534 223.995 174.945 223.398C175.196 222.469 175.321 221.673 175.321 221.009C175.321 220.544 175.154 220.146 174.82 219.814C173.733 218.819 172.186 218.321 170.179 218.321C169.761 218.321 168.005 218.719 164.911 219.516C164.744 219.582 164.618 219.615 164.535 219.615C162.946 219.615 161.525 218.753 160.27 217.027C160.019 216.629 159.601 215.401 159.016 213.344C158.849 212.68 158.305 212.083 157.385 211.552C156.717 211.154 156.173 210.955 155.755 210.955C155.755 210.955 154.71 211.087 152.619 211.353C152.452 211.353 152.285 211.353 152.118 211.353C150.78 211.353 147.853 210.026 143.338 207.371C141.916 206.508 138.279 204.318 132.426 200.801L126.656 196.023C125.235 194.894 124.44 194.231 124.273 194.032C123.52 193.302 122.308 192.671 120.636 192.14C117.458 190.415 113.57 188.457 108.971 186.267C109.473 184.608 110.058 183.115 110.727 181.787C107.382 180.659 105.375 180.095 104.706 180.095C104.205 180.095 103.578 180.128 102.825 180.195C101.571 179.265 99.8566 178.104 97.6825 176.71L92.4146 172.032C90.6586 170.638 89.6134 169.742 89.2789 169.344C88.7772 168.68 88.1919 167.585 87.523 166.059C85.6834 166.059 84.3455 165.926 83.5093 165.661C82.5059 165.329 80.4155 163.902 77.238 161.38C76.0674 160.517 74.7295 160.086 73.2244 160.086C72.0537 160.086 71.0503 160.385 70.2141 160.982C69.4616 161.579 69.0853 162.309 69.0853 163.172C69.0853 163.371 69.0853 163.603 69.0853 163.869L72.0955 163.67C72.0955 164.466 72.0955 165.097 72.0955 165.561C72.0955 166.158 71.9283 167.353 71.5938 169.145C71.5102 169.676 71.4684 170.207 71.4684 170.738C71.4684 171.202 71.7192 173.359 72.2209 177.208V180.891L72.3464 184.077C72.3464 184.608 72.0955 185.072 71.5938 185.471C70.7576 186.134 70.2977 186.632 70.2141 186.964C69.9633 187.76 69.587 188.722 69.0853 189.851C70.8413 189.983 72.0955 190.382 72.8481 191.045C72.0119 193.766 71.5938 198.611 71.5938 205.579C71.5102 206.84 71.0085 207.471 70.0887 207.471C69.2525 207.471 68.2491 206.973 67.0785 205.977H65.9496C65.5315 206.309 65.3225 206.641 65.3225 206.973C65.3225 209.428 67.2875 210.689 71.2175 210.756C71.552 211.486 71.761 213.178 71.8447 215.833L71.9701 217.624C71.8865 218.354 71.3012 219.35 70.2141 220.611L67.7056 221.805L68.8344 224.493C70.0887 223.564 71.0503 223.1 71.7192 223.1C72.639 223.1 73.0989 224.659 73.0989 227.778C73.0153 228.309 73.1825 229.072 73.6006 230.068C73.9351 231.063 74.1023 231.827 74.1023 232.357C74.1023 232.49 74.0605 232.756 73.9769 233.154C71.6356 234.216 70.1305 235.41 69.4616 236.738C66.7022 236.738 64.4863 237.368 62.814 238.629L63.3157 239.923C59.971 240.786 57.5461 241.649 56.0409 242.511C53.4488 244.17 51.7764 245 51.0239 245C50.1041 245 48.9752 244.801 47.6374 244.403C48.1391 242.611 48.3899 241.416 48.3899 240.819V240.52C48.3899 240.189 48.3899 239.857 48.3899 239.525C48.3063 239.127 48.2645 238.928 48.2645 238.928L61.4343 232.955L49.2679 227.679C49.2679 227.679 49.6442 227.446 50.3967 226.982C52.0691 225.92 52.8635 224.891 52.7798 223.896L52.4036 219.814L62.814 215.534L53.407 211.452L53.7833 207.769L53.6578 198.213L53.9087 195.923C52.9053 194.131 52.4036 193.069 52.4036 192.738C52.4036 192.273 52.4872 191.742 52.6544 191.145C53.9087 187.428 54.5358 185.371 54.5358 184.973L55.2884 169.842L62.0614 163.968C58.6331 162.442 56.1664 161.015 54.6612 159.688L55.5392 158.991H56.5426L57.4206 159.688H57.9223V158.891C59.2602 157.83 60.0546 156.701 60.3054 155.507L56.2918 155.905C55.4556 150.795 55.0375 146.713 55.0375 143.661L55.6647 138.186V138.086L55.4138 134.403L55.7901 132.71C55.7901 129.658 55.9991 127.866 56.4172 127.335C57.1698 126.472 57.5461 125.643 57.5461 124.846L53.7833 123.353C54.4522 122.092 54.8285 120.267 54.9121 117.878L55.0375 115.09L54.6612 111.905C54.6612 108.189 54.5776 105.833 54.4104 104.837C54.0759 103.775 53.407 102.647 52.4036 101.452C52.9889 100.324 53.3652 99.5611 53.5324 99.1629C53.8669 98.3665 54.285 97.7029 54.7867 97.1719C54.285 96.3756 54.0341 95.4465 54.0341 94.3846C54.9539 93.7873 55.9573 93.3891 57.0443 93.19V88.9095C55.8737 89.7722 54.7867 90.2368 53.7833 90.3032C53.4488 89.3077 53.1979 87.1508 53.0307 83.8326C52.6962 79.3861 52.2781 75.902 51.7764 73.3801C52.8635 72.5173 53.5742 71.6214 53.9087 70.6923C51.651 69.0995 50.5222 67.5068 50.5222 65.914C50.5222 65.0513 50.7312 63.7572 51.1493 62.0317C46.634 61.6998 44.2927 60.8703 44.1254 59.543L44 58.9457Z"/>
</mask>
<path d="M44 58.9457L56.7935 51.8778L57.7969 52.0769C61.2252 50.2851 63.9428 48.5928 65.9496 47L68.2073 47.3982C68.6254 47.3982 69.1689 47.365 69.8378 47.2986C70.1723 47.2986 70.4232 47.2986 70.5904 47.2986C71.5102 47.2986 72.3046 47.5641 72.9735 48.095C73.6424 48.7587 73.9769 49.3891 73.9769 49.9864L73.7261 53.371V58.3484C72.9735 61.733 72.5972 63.8899 72.5972 64.819C72.5972 66.1463 72.8481 68.1041 73.3498 70.6923L69.4616 74.5747L66.0751 74.0769L66.5768 76.7647V79.8507L67.3293 81.6425H67.9564L70.3395 80.2489C71.2593 81.2443 71.7192 82.0407 71.7192 82.638C71.7192 82.8371 71.6356 83.2353 71.4684 83.8326C71.2175 84.4299 71.0921 84.9276 71.0921 85.3258L71.4684 105.335L71.2175 109.516C71.1339 114.228 70.8831 116.716 70.465 116.982L67.4547 119.172C67.0367 119.504 66.8276 119.968 66.8276 120.566C66.8276 121.561 67.7474 122.722 69.587 124.05C69.8378 125.443 70.5068 127.003 71.5938 128.729L70.5904 132.213L70.9667 135.398L70.7158 140.475C71.0503 143.926 71.2175 146.514 71.2175 148.24L72.9735 148.937V150.828L73.8515 151.525C77.6979 150.264 79.872 149.468 80.3737 149.136C85.2235 146.348 88.3591 144.623 89.7806 143.959L90.4078 144.258L94.1706 140.674L112.859 125.145L114.615 121.959L127.659 108.719C128.997 107.326 130.544 105.998 132.3 104.738C133.554 103.676 135.687 101.585 138.697 98.4661L137.192 96.6742V96.5747C138.53 94.2519 141.833 90.6018 147.101 85.6244L149.233 85.1267C149.484 83.8658 150.362 82.3062 151.867 80.448L154.375 77.0633L156.507 74.5747L159.894 69.6968C162.319 67.7722 164.409 65.6154 166.165 63.2262C168.005 60.7707 169.426 58.9125 170.43 57.6516C172.688 57.3861 174.067 57.0875 174.569 56.7557L177.328 55.0633C179.753 53.6697 181.091 52.9065 181.342 52.7738C181.509 52.641 182.136 52.5415 183.223 52.4751C184.06 52.4751 185.188 52.0106 186.61 51.0814C188.366 49.9532 189.871 49.3891 191.125 49.3891L192.129 50.7828V50.8824C192.129 51.2805 191.251 52.4751 189.495 54.4661C187.822 57.187 186.944 58.6139 186.861 58.7466C186.861 58.7466 185.523 59.6425 182.847 61.4344C179.168 65.1508 177.036 67.4072 176.45 68.2036C175.28 70.1282 174.151 71.6214 173.064 72.6833L165.413 72.086L165.036 76.4661L167.169 77.1629C167.169 78.822 166.667 80.1825 165.664 81.2443C164.911 82.1071 163.615 83.2353 161.775 84.629C161.525 85.5581 161.065 86.2549 160.396 86.7195C159.476 87.5158 158.556 88.3122 157.636 89.1086L153.623 91.4977C152.536 93.8869 151.909 95.2142 151.741 95.4796C151.574 95.6787 150.78 96.1433 149.358 96.8733C149.358 98.1342 149.191 98.9638 148.856 99.362C148.522 99.8929 147.184 100.922 144.843 102.448C140.662 105.766 135.979 110.279 130.795 115.986L124.022 121.86C120.51 125.576 117.96 128.065 116.371 129.326L115.493 132.113C113.486 133.042 112.274 133.706 111.856 134.104C111.438 134.436 110.058 136.161 107.717 139.281C105.375 140.475 104.037 141.205 103.703 141.471C103.369 141.736 102.909 142.599 102.323 144.059L98.9368 144.357C98.1006 145.22 97.5571 145.784 97.3062 146.05C96.052 147.178 95.4248 147.875 95.4248 148.14C95.4248 148.207 95.4666 148.306 95.5503 148.439L95.6757 148.837L107.591 160.186C110.183 162.575 111.479 164.732 111.479 166.656C111.479 167.054 111.438 167.552 111.354 168.149C113.194 168.149 114.531 168.216 115.368 168.348C116.287 168.548 117.751 169.477 119.758 171.136C121.764 172.662 123.186 174.089 124.022 175.416C125.109 175.483 126.071 175.748 126.907 176.213C130.084 178.071 131.673 179.63 131.673 180.891C131.673 181.555 131.297 182.385 130.544 183.38C131.798 184.309 133.68 185.305 136.188 186.367L139.826 188.357L142.711 188.955C142.961 188.689 143.923 189.386 145.595 191.045H148.229C150.738 193.302 154.375 195.824 159.141 198.611L174.945 207.57L178.959 209.362C178.875 209.959 178.833 210.49 178.833 210.955C178.833 212.083 179.502 212.747 180.84 212.946C182.262 213.145 183.391 213.377 184.227 213.643V215.434C184.645 215.7 185.815 215.998 187.739 216.33C189.495 216.861 191.627 217.326 194.135 217.724C196.309 218.122 198.233 218.952 199.905 220.213C209.187 224.659 213.953 226.982 214.204 227.181C214.789 227.579 215.249 228.575 215.583 230.167C218.008 230.632 220.141 231.296 221.98 232.158L224.614 230.367C226.621 231.097 229.297 231.727 232.641 232.258C235.986 232.789 238.829 233.054 241.17 233.054C241.254 233.054 241.421 233.054 241.672 233.054C247.525 232.391 250.452 232.059 250.452 232.059C250.619 232.059 250.995 232.324 251.581 232.855L251.957 233.652C252.459 236.704 248.57 238.928 240.292 240.321L238.286 242.412C235.861 242.544 234.272 242.744 233.519 243.009C233.268 243.075 231.972 243.673 229.631 244.801L226.872 244.502C224.53 244.303 223.193 244.17 222.858 244.104C222.607 244.038 221.938 243.673 220.851 243.009L216.336 243.507C213.911 241.914 212.113 240.819 210.943 240.222C210.19 239.757 207.974 238.828 204.295 237.434C202.121 236.439 200.323 235.775 198.902 235.443C197.815 235.244 196.059 234.581 193.634 233.452C190.874 232.125 189.244 231.428 188.742 231.362C186.401 230.499 185.063 229.902 184.728 229.57L181.969 227.181L179.962 226.385C178.206 224.991 176.534 223.995 174.945 223.398C175.196 222.469 175.321 221.673 175.321 221.009C175.321 220.544 175.154 220.146 174.82 219.814C173.733 218.819 172.186 218.321 170.179 218.321C169.761 218.321 168.005 218.719 164.911 219.516C164.744 219.582 164.618 219.615 164.535 219.615C162.946 219.615 161.525 218.753 160.27 217.027C160.019 216.629 159.601 215.401 159.016 213.344C158.849 212.68 158.305 212.083 157.385 211.552C156.717 211.154 156.173 210.955 155.755 210.955C155.755 210.955 154.71 211.087 152.619 211.353C152.452 211.353 152.285 211.353 152.118 211.353C150.78 211.353 147.853 210.026 143.338 207.371C141.916 206.508 138.279 204.318 132.426 200.801L126.656 196.023C125.235 194.894 124.44 194.231 124.273 194.032C123.52 193.302 122.308 192.671 120.636 192.14C117.458 190.415 113.57 188.457 108.971 186.267C109.473 184.608 110.058 183.115 110.727 181.787C107.382 180.659 105.375 180.095 104.706 180.095C104.205 180.095 103.578 180.128 102.825 180.195C101.571 179.265 99.8566 178.104 97.6825 176.71L92.4146 172.032C90.6586 170.638 89.6134 169.742 89.2789 169.344C88.7772 168.68 88.1919 167.585 87.523 166.059C85.6834 166.059 84.3455 165.926 83.5093 165.661C82.5059 165.329 80.4155 163.902 77.238 161.38C76.0674 160.517 74.7295 160.086 73.2244 160.086C72.0537 160.086 71.0503 160.385 70.2141 160.982C69.4616 161.579 69.0853 162.309 69.0853 163.172C69.0853 163.371 69.0853 163.603 69.0853 163.869L72.0955 163.67C72.0955 164.466 72.0955 165.097 72.0955 165.561C72.0955 166.158 71.9283 167.353 71.5938 169.145C71.5102 169.676 71.4684 170.207 71.4684 170.738C71.4684 171.202 71.7192 173.359 72.2209 177.208V180.891L72.3464 184.077C72.3464 184.608 72.0955 185.072 71.5938 185.471C70.7576 186.134 70.2977 186.632 70.2141 186.964C69.9633 187.76 69.587 188.722 69.0853 189.851C70.8413 189.983 72.0955 190.382 72.8481 191.045C72.0119 193.766 71.5938 198.611 71.5938 205.579C71.5102 206.84 71.0085 207.471 70.0887 207.471C69.2525 207.471 68.2491 206.973 67.0785 205.977H65.9496C65.5315 206.309 65.3225 206.641 65.3225 206.973C65.3225 209.428 67.2875 210.689 71.2175 210.756C71.552 211.486 71.761 213.178 71.8447 215.833L71.9701 217.624C71.8865 218.354 71.3012 219.35 70.2141 220.611L67.7056 221.805L68.8344 224.493C70.0887 223.564 71.0503 223.1 71.7192 223.1C72.639 223.1 73.0989 224.659 73.0989 227.778C73.0153 228.309 73.1825 229.072 73.6006 230.068C73.9351 231.063 74.1023 231.827 74.1023 232.357C74.1023 232.49 74.0605 232.756 73.9769 233.154C71.6356 234.216 70.1305 235.41 69.4616 236.738C66.7022 236.738 64.4863 237.368 62.814 238.629L63.3157 239.923C59.971 240.786 57.5461 241.649 56.0409 242.511C53.4488 244.17 51.7764 245 51.0239 245C50.1041 245 48.9752 244.801 47.6374 244.403C48.1391 242.611 48.3899 241.416 48.3899 240.819V240.52C48.3899 240.189 48.3899 239.857 48.3899 239.525C48.3063 239.127 48.2645 238.928 48.2645 238.928L61.4343 232.955L49.2679 227.679C49.2679 227.679 49.6442 227.446 50.3967 226.982C52.0691 225.92 52.8635 224.891 52.7798 223.896L52.4036 219.814L62.814 215.534L53.407 211.452L53.7833 207.769L53.6578 198.213L53.9087 195.923C52.9053 194.131 52.4036 193.069 52.4036 192.738C52.4036 192.273 52.4872 191.742 52.6544 191.145C53.9087 187.428 54.5358 185.371 54.5358 184.973L55.2884 169.842L62.0614 163.968C58.6331 162.442 56.1664 161.015 54.6612 159.688L55.5392 158.991H56.5426L57.4206 159.688H57.9223V158.891C59.2602 157.83 60.0546 156.701 60.3054 155.507L56.2918 155.905C55.4556 150.795 55.0375 146.713 55.0375 143.661L55.6647 138.186V138.086L55.4138 134.403L55.7901 132.71C55.7901 129.658 55.9991 127.866 56.4172 127.335C57.1698 126.472 57.5461 125.643 57.5461 124.846L53.7833 123.353C54.4522 122.092 54.8285 120.267 54.9121 117.878L55.0375 115.09L54.6612 111.905C54.6612 108.189 54.5776 105.833 54.4104 104.837C54.0759 103.775 53.407 102.647 52.4036 101.452C52.9889 100.324 53.3652 99.5611 53.5324 99.1629C53.8669 98.3665 54.285 97.7029 54.7867 97.1719C54.285 96.3756 54.0341 95.4465 54.0341 94.3846C54.9539 93.7873 55.9573 93.3891 57.0443 93.19V88.9095C55.8737 89.7722 54.7867 90.2368 53.7833 90.3032C53.4488 89.3077 53.1979 87.1508 53.0307 83.8326C52.6962 79.3861 52.2781 75.902 51.7764 73.3801C52.8635 72.5173 53.5742 71.6214 53.9087 70.6923C51.651 69.0995 50.5222 67.5068 50.5222 65.914C50.5222 65.0513 50.7312 63.7572 51.1493 62.0317C46.634 61.6998 44.2927 60.8703 44.1254 59.543L44 58.9457Z" fill="white"/>
<path d="M44 58.9457L56.7935 51.8778L57.7969 52.0769C61.2252 50.2851 63.9428 48.5928 65.9496 47L68.2073 47.3982C68.6254 47.3982 69.1689 47.365 69.8378 47.2986C70.1723 47.2986 70.4232 47.2986 70.5904 47.2986C71.5102 47.2986 72.3046 47.5641 72.9735 48.095C73.6424 48.7587 73.9769 49.3891 73.9769 49.9864L73.7261 53.371V58.3484C72.9735 61.733 72.5972 63.8899 72.5972 64.819C72.5972 66.1463 72.8481 68.1041 73.3498 70.6923L69.4616 74.5747L66.0751 74.0769L66.5768 76.7647V79.8507L67.3293 81.6425H67.9564L70.3395 80.2489C71.2593 81.2443 71.7192 82.0407 71.7192 82.638C71.7192 82.8371 71.6356 83.2353 71.4684 83.8326C71.2175 84.4299 71.0921 84.9276 71.0921 85.3258L71.4684 105.335L71.2175 109.516C71.1339 114.228 70.8831 116.716 70.465 116.982L67.4547 119.172C67.0367 119.504 66.8276 119.968 66.8276 120.566C66.8276 121.561 67.7474 122.722 69.587 124.05C69.8378 125.443 70.5068 127.003 71.5938 128.729L70.5904 132.213L70.9667 135.398L70.7158 140.475C71.0503 143.926 71.2175 146.514 71.2175 148.24L72.9735 148.937V150.828L73.8515 151.525C77.6979 150.264 79.872 149.468 80.3737 149.136C85.2235 146.348 88.3591 144.623 89.7806 143.959L90.4078 144.258L94.1706 140.674L112.859 125.145L114.615 121.959L127.659 108.719C128.997 107.326 130.544 105.998 132.3 104.738C133.554 103.676 135.687 101.585 138.697 98.4661L137.192 96.6742V96.5747C138.53 94.2519 141.833 90.6018 147.101 85.6244L149.233 85.1267C149.484 83.8658 150.362 82.3062 151.867 80.448L154.375 77.0633L156.507 74.5747L159.894 69.6968C162.319 67.7722 164.409 65.6154 166.165 63.2262C168.005 60.7707 169.426 58.9125 170.43 57.6516C172.688 57.3861 174.067 57.0875 174.569 56.7557L177.328 55.0633C179.753 53.6697 181.091 52.9065 181.342 52.7738C181.509 52.641 182.136 52.5415 183.223 52.4751C184.06 52.4751 185.188 52.0106 186.61 51.0814C188.366 49.9532 189.871 49.3891 191.125 49.3891L192.129 50.7828V50.8824C192.129 51.2805 191.251 52.4751 189.495 54.4661C187.822 57.187 186.944 58.6139 186.861 58.7466C186.861 58.7466 185.523 59.6425 182.847 61.4344C179.168 65.1508 177.036 67.4072 176.45 68.2036C175.28 70.1282 174.151 71.6214 173.064 72.6833L165.413 72.086L165.036 76.4661L167.169 77.1629C167.169 78.822 166.667 80.1825 165.664 81.2443C164.911 82.1071 163.615 83.2353 161.775 84.629C161.525 85.5581 161.065 86.2549 160.396 86.7195C159.476 87.5158 158.556 88.3122 157.636 89.1086L153.623 91.4977C152.536 93.8869 151.909 95.2142 151.741 95.4796C151.574 95.6787 150.78 96.1433 149.358 96.8733C149.358 98.1342 149.191 98.9638 148.856 99.362C148.522 99.8929 147.184 100.922 144.843 102.448C140.662 105.766 135.979 110.279 130.795 115.986L124.022 121.86C120.51 125.576 117.96 128.065 116.371 129.326L115.493 132.113C113.486 133.042 112.274 133.706 111.856 134.104C111.438 134.436 110.058 136.161 107.717 139.281C105.375 140.475 104.037 141.205 103.703 141.471C103.369 141.736 102.909 142.599 102.323 144.059L98.9368 144.357C98.1006 145.22 97.5571 145.784 97.3062 146.05C96.052 147.178 95.4248 147.875 95.4248 148.14C95.4248 148.207 95.4666 148.306 95.5503 148.439L95.6757 148.837L107.591 160.186C110.183 162.575 111.479 164.732 111.479 166.656C111.479 167.054 111.438 167.552 111.354 168.149C113.194 168.149 114.531 168.216 115.368 168.348C116.287 168.548 117.751 169.477 119.758 171.136C121.764 172.662 123.186 174.089 124.022 175.416C125.109 175.483 126.071 175.748 126.907 176.213C130.084 178.071 131.673 179.63 131.673 180.891C131.673 181.555 131.297 182.385 130.544 183.38C131.798 184.309 133.68 185.305 136.188 186.367L139.826 188.357L142.711 188.955C142.961 188.689 143.923 189.386 145.595 191.045H148.229C150.738 193.302 154.375 195.824 159.141 198.611L174.945 207.57L178.959 209.362C178.875 209.959 178.833 210.49 178.833 210.955C178.833 212.083 179.502 212.747 180.84 212.946C182.262 213.145 183.391 213.377 184.227 213.643V215.434C184.645 215.7 185.815 215.998 187.739 216.33C189.495 216.861 191.627 217.326 194.135 217.724C196.309 218.122 198.233 218.952 199.905 220.213C209.187 224.659 213.953 226.982 214.204 227.181C214.789 227.579 215.249 228.575 215.583 230.167C218.008 230.632 220.141 231.296 221.98 232.158L224.614 230.367C226.621 231.097 229.297 231.727 232.641 232.258C235.986 232.789 238.829 233.054 241.17 233.054C241.254 233.054 241.421 233.054 241.672 233.054C247.525 232.391 250.452 232.059 250.452 232.059C250.619 232.059 250.995 232.324 251.581 232.855L251.957 233.652C252.459 236.704 248.57 238.928 240.292 240.321L238.286 242.412C235.861 242.544 234.272 242.744 233.519 243.009C233.268 243.075 231.972 243.673 229.631 244.801L226.872 244.502C224.53 244.303 223.193 244.17 222.858 244.104C222.607 244.038 221.938 243.673 220.851 243.009L216.336 243.507C213.911 241.914 212.113 240.819 210.943 240.222C210.19 239.757 207.974 238.828 204.295 237.434C202.121 236.439 200.323 235.775 198.902 235.443C197.815 235.244 196.059 234.581 193.634 233.452C190.874 232.125 189.244 231.428 188.742 231.362C186.401 230.499 185.063 229.902 184.728 229.57L181.969 227.181L179.962 226.385C178.206 224.991 176.534 223.995 174.945 223.398C175.196 222.469 175.321 221.673 175.321 221.009C175.321 220.544 175.154 220.146 174.82 219.814C173.733 218.819 172.186 218.321 170.179 218.321C169.761 218.321 168.005 218.719 164.911 219.516C164.744 219.582 164.618 219.615 164.535 219.615C162.946 219.615 161.525 218.753 160.27 217.027C160.019 216.629 159.601 215.401 159.016 213.344C158.849 212.68 158.305 212.083 157.385 211.552C156.717 211.154 156.173 210.955 155.755 210.955C155.755 210.955 154.71 211.087 152.619 211.353C152.452 211.353 152.285 211.353 152.118 211.353C150.78 211.353 147.853 210.026 143.338 207.371C141.916 206.508 138.279 204.318 132.426 200.801L126.656 196.023C125.235 194.894 124.44 194.231 124.273 194.032C123.52 193.302 122.308 192.671 120.636 192.14C117.458 190.415 113.57 188.457 108.971 186.267C109.473 184.608 110.058 183.115 110.727 181.787C107.382 180.659 105.375 180.095 104.706 180.095C104.205 180.095 103.578 180.128 102.825 180.195C101.571 179.265 99.8566 178.104 97.6825 176.71L92.4146 172.032C90.6586 170.638 89.6134 169.742 89.2789 169.344C88.7772 168.68 88.1919 167.585 87.523 166.059C85.6834 166.059 84.3455 165.926 83.5093 165.661C82.5059 165.329 80.4155 163.902 77.238 161.38C76.0674 160.517 74.7295 160.086 73.2244 160.086C72.0537 160.086 71.0503 160.385 70.2141 160.982C69.4616 161.579 69.0853 162.309 69.0853 163.172C69.0853 163.371 69.0853 163.603 69.0853 163.869L72.0955 163.67C72.0955 164.466 72.0955 165.097 72.0955 165.561C72.0955 166.158 71.9283 167.353 71.5938 169.145C71.5102 169.676 71.4684 170.207 71.4684 170.738C71.4684 171.202 71.7192 173.359 72.2209 177.208V180.891L72.3464 184.077C72.3464 184.608 72.0955 185.072 71.5938 185.471C70.7576 186.134 70.2977 186.632 70.2141 186.964C69.9633 187.76 69.587 188.722 69.0853 189.851C70.8413 189.983 72.0955 190.382 72.8481 191.045C72.0119 193.766 71.5938 198.611 71.5938 205.579C71.5102 206.84 71.0085 207.471 70.0887 207.471C69.2525 207.471 68.2491 206.973 67.0785 205.977H65.9496C65.5315 206.309 65.3225 206.641 65.3225 206.973C65.3225 209.428 67.2875 210.689 71.2175 210.756C71.552 211.486 71.761 213.178 71.8447 215.833L71.9701 217.624C71.8865 218.354 71.3012 219.35 70.2141 220.611L67.7056 221.805L68.8344 224.493C70.0887 223.564 71.0503 223.1 71.7192 223.1C72.639 223.1 73.0989 224.659 73.0989 227.778C73.0153 228.309 73.1825 229.072 73.6006 230.068C73.9351 231.063 74.1023 231.827 74.1023 232.357C74.1023 232.49 74.0605 232.756 73.9769 233.154C71.6356 234.216 70.1305 235.41 69.4616 236.738C66.7022 236.738 64.4863 237.368 62.814 238.629L63.3157 239.923C59.971 240.786 57.5461 241.649 56.0409 242.511C53.4488 244.17 51.7764 245 51.0239 245C50.1041 245 48.9752 244.801 47.6374 244.403C48.1391 242.611 48.3899 241.416 48.3899 240.819V240.52C48.3899 240.189 48.3899 239.857 48.3899 239.525C48.3063 239.127 48.2645 238.928 48.2645 238.928L61.4343 232.955L49.2679 227.679C49.2679 227.679 49.6442 227.446 50.3967 226.982C52.0691 225.92 52.8635 224.891 52.7798 223.896L52.4036 219.814L62.814 215.534L53.407 211.452L53.7833 207.769L53.6578 198.213L53.9087 195.923C52.9053 194.131 52.4036 193.069 52.4036 192.738C52.4036 192.273 52.4872 191.742 52.6544 191.145C53.9087 187.428 54.5358 185.371 54.5358 184.973L55.2884 169.842L62.0614 163.968C58.6331 162.442 56.1664 161.015 54.6612 159.688L55.5392 158.991H56.5426L57.4206 159.688H57.9223V158.891C59.2602 157.83 60.0546 156.701 60.3054 155.507L56.2918 155.905C55.4556 150.795 55.0375 146.713 55.0375 143.661L55.6647 138.186V138.086L55.4138 134.403L55.7901 132.71C55.7901 129.658 55.9991 127.866 56.4172 127.335C57.1698 126.472 57.5461 125.643 57.5461 124.846L53.7833 123.353C54.4522 122.092 54.8285 120.267 54.9121 117.878L55.0375 115.09L54.6612 111.905C54.6612 108.189 54.5776 105.833 54.4104 104.837C54.0759 103.775 53.407 102.647 52.4036 101.452C52.9889 100.324 53.3652 99.5611 53.5324 99.1629C53.8669 98.3665 54.285 97.7029 54.7867 97.1719C54.285 96.3756 54.0341 95.4465 54.0341 94.3846C54.9539 93.7873 55.9573 93.3891 57.0443 93.19V88.9095C55.8737 89.7722 54.7867 90.2368 53.7833 90.3032C53.4488 89.3077 53.1979 87.1508 53.0307 83.8326C52.6962 79.3861 52.2781 75.902 51.7764 73.3801C52.8635 72.5173 53.5742 71.6214 53.9087 70.6923C51.651 69.0995 50.5222 67.5068 50.5222 65.914C50.5222 65.0513 50.7312 63.7572 51.1493 62.0317C46.634 61.6998 44.2927 60.8703 44.1254 59.543L44 58.9457Z" stroke="white" stroke-width="12" mask="url(#path-2-outside-1_209_7)"/>
<mask id="path-3-outside-2_209_7" maskUnits="userSpaceOnUse" x="154" y="132" width="192" height="212" fill="black">
<rect fill="white" x="154" y="132" width="192" height="212"/>
<path d="M165 333.691C165.754 332.82 166.801 331.984 168.141 331.181C169.313 330.511 171.282 329.273 174.045 327.466C173.878 326.863 173.794 326.294 173.794 325.759C173.794 325.424 174.045 325.056 174.548 324.654C177.312 321.642 180.16 318.63 183.091 315.618C183.845 314.614 185.604 313.108 188.368 311.099L177.814 309.091L188.619 303.569L178.066 295.336L178.443 291.922L178.694 289.01C179.95 286.533 180.578 284.793 180.578 283.789V280.576C180.578 279.505 181.374 278.668 182.965 278.066L184.222 277.463L186.357 277.765C186.357 277.765 186.483 277.731 186.734 277.664C186.986 277.263 187.111 276.928 187.111 276.66C187.111 276.125 186.106 275.154 184.096 273.748V271.038L180.453 271.74L179.448 270.937C180.034 269.331 180.327 268.327 180.327 267.925L179.95 263.306L180.578 254.471C180.578 254.136 180.201 252.496 179.448 249.551C180.034 247.944 180.369 246.505 180.453 245.233H182.212C182.212 243.56 182.714 241.819 183.719 240.012C180.955 239.677 179.573 239.042 179.573 238.104C179.573 237.703 179.741 237 180.076 235.996C180.243 235.26 180.327 233.854 180.327 231.779C180.327 230.909 180.327 229.871 180.327 228.666C180.411 227.595 180.453 226.792 180.453 226.257C180.453 225.52 180.369 224.884 180.201 224.349C179.866 223.613 179.699 223.111 179.699 222.843C179.699 222.575 179.95 222.106 180.453 221.437H182.714L183.217 219.831L181.206 219.429V218.726C181.29 217.856 181.625 217.053 182.212 216.316L183.845 214.509C183.845 214.375 184.347 214.208 185.352 214.007L185.729 212.702L182.84 211.698L183.845 208.886C182.672 209.489 181.625 209.79 180.704 209.79C179.531 209.79 178.945 209.087 178.945 207.682C178.945 207.548 179.113 206.142 179.448 203.465V203.364L178.819 195.332V191.115C178.819 190.311 178.778 189.341 178.694 188.203C178.694 187.533 178.694 187.065 178.694 186.797C178.694 185.325 179.071 183.417 179.825 181.074L178.317 179.769V171.033C178.819 170.9 179.071 170.799 179.071 170.732C179.155 170.598 179.238 169.762 179.322 168.222C178.149 166.549 177.563 165.377 177.563 164.708C177.563 164.373 177.563 163.972 177.563 163.503C176.391 162.365 175.804 161.629 175.804 161.294L175.679 157.378C175.427 155.437 175.26 154.165 175.176 153.563C175.092 152.693 174.422 151.622 173.166 150.35L170.905 149.948L169.648 146.936C171.491 146.2 172.705 145.698 173.292 145.43C175.302 144.627 177.312 144.158 179.322 144.024L181.458 143.221L183.845 142.317L185.855 140.711L187.362 140.209C191.634 138.736 194.858 138 197.036 138C198.879 138 199.8 138.636 199.8 139.908V142.92L200.554 145.43C199.465 146.635 198.921 147.672 198.921 148.543C198.921 149.279 199.004 150.249 199.172 151.454C199.256 152.659 199.381 154.433 199.549 156.776H199.926V157.479C198.753 157.746 197.874 157.88 197.287 157.88C196.785 157.88 196.073 157.813 195.152 157.68L194.649 158.081C194.482 159.286 193.518 160.257 191.76 160.993L194.523 164.407L197.664 164.005L199.549 166.616H200.805L201.182 166.816C200.009 168.423 198.041 170.297 195.277 172.439L193.77 179.066L187.865 184.287L189.624 188.203L190.755 201.456C191.006 201.925 192.43 202.594 195.026 203.465C197.455 204.268 198.669 205.104 198.669 205.975C198.669 205.975 198.627 206.042 198.544 206.175C198.46 206.51 198.251 207.046 197.916 207.782L196.031 208.083C197.957 209.489 198.921 211.966 198.921 215.513C198.921 216.852 197.622 218.124 195.026 219.329C195.947 220.801 196.617 221.772 197.036 222.24C198.292 224.115 198.921 225.621 198.921 226.759C198.921 226.826 198.544 227.93 197.79 230.072L197.916 230.875C197.916 230.875 197.916 230.909 197.916 230.976C197.832 231.176 197.79 231.745 197.79 232.683C197.874 238.372 197.832 242.154 197.664 244.028C197.664 244.631 197.664 245.434 197.664 246.438C197.664 248.245 197.706 250.019 197.79 251.76C197.874 252.362 197.916 252.898 197.916 253.366C197.916 253.701 197.79 254.102 197.539 254.571L197.413 254.169L194.775 255.675C195.11 257.751 196.199 259.491 198.041 260.897L197.664 262.001L198.167 276.259L198.292 277.865C198.292 278.601 198.292 279.204 198.292 279.672C198.292 280.476 197.664 283.12 196.408 287.604L196.031 292.926L194.775 294.432C194.691 294.566 194.607 295.202 194.523 296.34C194.105 298.214 193.812 299.754 193.644 300.958L196.534 300.657C197.371 302.598 197.79 303.703 197.79 303.971L197.539 319.734C197.539 321.14 198.46 322.044 200.303 322.445C201.726 322.713 202.983 323.215 204.071 323.951C204.909 323.884 205.621 323.851 206.207 323.851C206.794 323.851 208.134 324.085 210.227 324.554L215.127 324.955L223.544 326.461H230.957L234.977 330.98L245.404 326.963L249.801 327.566L253.194 327.867L256.586 328.771C256.669 328.771 258.219 328.57 261.234 328.168C261.736 328.101 262.197 328.068 262.616 328.068C263.286 328.068 265.17 328.369 268.269 328.972C272.29 328.436 274.425 328.168 274.677 328.168C275.849 328.168 277.943 328.302 280.958 328.57C282.047 328.637 283.052 328.67 283.973 328.67C285.062 328.67 286.947 328.436 289.627 327.968L295.783 327.566C299.719 326.963 303.907 326.528 308.346 326.261C310.188 326.194 311.445 326.026 312.115 325.759C313.287 325.424 314.167 325.257 314.753 325.257C315.004 325.257 316.177 326.83 318.271 329.976C318.355 330.043 318.48 330.076 318.648 330.076C319.82 330.076 320.993 329.206 322.165 327.466C322.752 326.595 323.045 325.089 323.045 322.947C325.892 322.345 327.777 321.876 328.698 321.542C333.891 319.667 337.116 318.73 338.372 318.73C338.372 318.73 338.581 318.764 339 318.831C338.916 320.839 338.623 322.111 338.121 322.646L336.11 324.755L331.713 329.875C329.955 331.214 328.531 332.452 327.442 333.59H324.427L323.045 335.598L315.13 330.779L298.295 335.699C298.295 335.699 297.96 335.598 297.29 335.398C295.866 335.063 293.019 334.896 288.747 334.896H288.37C287.7 334.896 280.874 335.264 267.892 336L259.601 335.096C256.586 335.498 255.036 335.699 254.952 335.699C253.11 335.699 251.393 335.096 249.801 333.891C247.038 331.883 245.614 330.879 245.53 330.879L232.464 334.896L229.323 334.394L226.308 334.193L223.168 333.891C217.64 333.758 214.248 333.624 212.991 333.49L214.373 332.787H209.097L208.343 334.896C206.752 334.226 205.705 333.724 205.202 333.389C203.946 332.787 202.48 332.385 200.805 332.185C198.125 333.992 195.11 334.896 191.76 334.896C189.833 334.896 187.488 334.695 184.724 334.293C182.63 335.431 180.411 336 178.066 336C177.396 336 175.972 335.766 173.794 335.297C170.36 334.829 167.429 334.293 165 333.691Z"/>
</mask>
<path d="M165 333.691C165.754 332.82 166.801 331.984 168.141 331.181C169.313 330.511 171.282 329.273 174.045 327.466C173.878 326.863 173.794 326.294 173.794 325.759C173.794 325.424 174.045 325.056 174.548 324.654C177.312 321.642 180.16 318.63 183.091 315.618C183.845 314.614 185.604 313.108 188.368 311.099L177.814 309.091L188.619 303.569L178.066 295.336L178.443 291.922L178.694 289.01C179.95 286.533 180.578 284.793 180.578 283.789V280.576C180.578 279.505 181.374 278.668 182.965 278.066L184.222 277.463L186.357 277.765C186.357 277.765 186.483 277.731 186.734 277.664C186.986 277.263 187.111 276.928 187.111 276.66C187.111 276.125 186.106 275.154 184.096 273.748V271.038L180.453 271.74L179.448 270.937C180.034 269.331 180.327 268.327 180.327 267.925L179.95 263.306L180.578 254.471C180.578 254.136 180.201 252.496 179.448 249.551C180.034 247.944 180.369 246.505 180.453 245.233H182.212C182.212 243.56 182.714 241.819 183.719 240.012C180.955 239.677 179.573 239.042 179.573 238.104C179.573 237.703 179.741 237 180.076 235.996C180.243 235.26 180.327 233.854 180.327 231.779C180.327 230.909 180.327 229.871 180.327 228.666C180.411 227.595 180.453 226.792 180.453 226.257C180.453 225.52 180.369 224.884 180.201 224.349C179.866 223.613 179.699 223.111 179.699 222.843C179.699 222.575 179.95 222.106 180.453 221.437H182.714L183.217 219.831L181.206 219.429V218.726C181.29 217.856 181.625 217.053 182.212 216.316L183.845 214.509C183.845 214.375 184.347 214.208 185.352 214.007L185.729 212.702L182.84 211.698L183.845 208.886C182.672 209.489 181.625 209.79 180.704 209.79C179.531 209.79 178.945 209.087 178.945 207.682C178.945 207.548 179.113 206.142 179.448 203.465V203.364L178.819 195.332V191.115C178.819 190.311 178.778 189.341 178.694 188.203C178.694 187.533 178.694 187.065 178.694 186.797C178.694 185.325 179.071 183.417 179.825 181.074L178.317 179.769V171.033C178.819 170.9 179.071 170.799 179.071 170.732C179.155 170.598 179.238 169.762 179.322 168.222C178.149 166.549 177.563 165.377 177.563 164.708C177.563 164.373 177.563 163.972 177.563 163.503C176.391 162.365 175.804 161.629 175.804 161.294L175.679 157.378C175.427 155.437 175.26 154.165 175.176 153.563C175.092 152.693 174.422 151.622 173.166 150.35L170.905 149.948L169.648 146.936C171.491 146.2 172.705 145.698 173.292 145.43C175.302 144.627 177.312 144.158 179.322 144.024L181.458 143.221L183.845 142.317L185.855 140.711L187.362 140.209C191.634 138.736 194.858 138 197.036 138C198.879 138 199.8 138.636 199.8 139.908V142.92L200.554 145.43C199.465 146.635 198.921 147.672 198.921 148.543C198.921 149.279 199.004 150.249 199.172 151.454C199.256 152.659 199.381 154.433 199.549 156.776H199.926V157.479C198.753 157.746 197.874 157.88 197.287 157.88C196.785 157.88 196.073 157.813 195.152 157.68L194.649 158.081C194.482 159.286 193.518 160.257 191.76 160.993L194.523 164.407L197.664 164.005L199.549 166.616H200.805L201.182 166.816C200.009 168.423 198.041 170.297 195.277 172.439L193.77 179.066L187.865 184.287L189.624 188.203L190.755 201.456C191.006 201.925 192.43 202.594 195.026 203.465C197.455 204.268 198.669 205.104 198.669 205.975C198.669 205.975 198.627 206.042 198.544 206.175C198.46 206.51 198.251 207.046 197.916 207.782L196.031 208.083C197.957 209.489 198.921 211.966 198.921 215.513C198.921 216.852 197.622 218.124 195.026 219.329C195.947 220.801 196.617 221.772 197.036 222.24C198.292 224.115 198.921 225.621 198.921 226.759C198.921 226.826 198.544 227.93 197.79 230.072L197.916 230.875C197.916 230.875 197.916 230.909 197.916 230.976C197.832 231.176 197.79 231.745 197.79 232.683C197.874 238.372 197.832 242.154 197.664 244.028C197.664 244.631 197.664 245.434 197.664 246.438C197.664 248.245 197.706 250.019 197.79 251.76C197.874 252.362 197.916 252.898 197.916 253.366C197.916 253.701 197.79 254.102 197.539 254.571L197.413 254.169L194.775 255.675C195.11 257.751 196.199 259.491 198.041 260.897L197.664 262.001L198.167 276.259L198.292 277.865C198.292 278.601 198.292 279.204 198.292 279.672C198.292 280.476 197.664 283.12 196.408 287.604L196.031 292.926L194.775 294.432C194.691 294.566 194.607 295.202 194.523 296.34C194.105 298.214 193.812 299.754 193.644 300.958L196.534 300.657C197.371 302.598 197.79 303.703 197.79 303.971L197.539 319.734C197.539 321.14 198.46 322.044 200.303 322.445C201.726 322.713 202.983 323.215 204.071 323.951C204.909 323.884 205.621 323.851 206.207 323.851C206.794 323.851 208.134 324.085 210.227 324.554L215.127 324.955L223.544 326.461H230.957L234.977 330.98L245.404 326.963L249.801 327.566L253.194 327.867L256.586 328.771C256.669 328.771 258.219 328.57 261.234 328.168C261.736 328.101 262.197 328.068 262.616 328.068C263.286 328.068 265.17 328.369 268.269 328.972C272.29 328.436 274.425 328.168 274.677 328.168C275.849 328.168 277.943 328.302 280.958 328.57C282.047 328.637 283.052 328.67 283.973 328.67C285.062 328.67 286.947 328.436 289.627 327.968L295.783 327.566C299.719 326.963 303.907 326.528 308.346 326.261C310.188 326.194 311.445 326.026 312.115 325.759C313.287 325.424 314.167 325.257 314.753 325.257C315.004 325.257 316.177 326.83 318.271 329.976C318.355 330.043 318.48 330.076 318.648 330.076C319.82 330.076 320.993 329.206 322.165 327.466C322.752 326.595 323.045 325.089 323.045 322.947C325.892 322.345 327.777 321.876 328.698 321.542C333.891 319.667 337.116 318.73 338.372 318.73C338.372 318.73 338.581 318.764 339 318.831C338.916 320.839 338.623 322.111 338.121 322.646L336.11 324.755L331.713 329.875C329.955 331.214 328.531 332.452 327.442 333.59H324.427L323.045 335.598L315.13 330.779L298.295 335.699C298.295 335.699 297.96 335.598 297.29 335.398C295.866 335.063 293.019 334.896 288.747 334.896H288.37C287.7 334.896 280.874 335.264 267.892 336L259.601 335.096C256.586 335.498 255.036 335.699 254.952 335.699C253.11 335.699 251.393 335.096 249.801 333.891C247.038 331.883 245.614 330.879 245.53 330.879L232.464 334.896L229.323 334.394L226.308 334.193L223.168 333.891C217.64 333.758 214.248 333.624 212.991 333.49L214.373 332.787H209.097L208.343 334.896C206.752 334.226 205.705 333.724 205.202 333.389C203.946 332.787 202.48 332.385 200.805 332.185C198.125 333.992 195.11 334.896 191.76 334.896C189.833 334.896 187.488 334.695 184.724 334.293C182.63 335.431 180.411 336 178.066 336C177.396 336 175.972 335.766 173.794 335.297C170.36 334.829 167.429 334.293 165 333.691Z" fill="white"/>
<path d="M165 333.691C165.754 332.82 166.801 331.984 168.141 331.181C169.313 330.511 171.282 329.273 174.045 327.466C173.878 326.863 173.794 326.294 173.794 325.759C173.794 325.424 174.045 325.056 174.548 324.654C177.312 321.642 180.16 318.63 183.091 315.618C183.845 314.614 185.604 313.108 188.368 311.099L177.814 309.091L188.619 303.569L178.066 295.336L178.443 291.922L178.694 289.01C179.95 286.533 180.578 284.793 180.578 283.789V280.576C180.578 279.505 181.374 278.668 182.965 278.066L184.222 277.463L186.357 277.765C186.357 277.765 186.483 277.731 186.734 277.664C186.986 277.263 187.111 276.928 187.111 276.66C187.111 276.125 186.106 275.154 184.096 273.748V271.038L180.453 271.74L179.448 270.937C180.034 269.331 180.327 268.327 180.327 267.925L179.95 263.306L180.578 254.471C180.578 254.136 180.201 252.496 179.448 249.551C180.034 247.944 180.369 246.505 180.453 245.233H182.212C182.212 243.56 182.714 241.819 183.719 240.012C180.955 239.677 179.573 239.042 179.573 238.104C179.573 237.703 179.741 237 180.076 235.996C180.243 235.26 180.327 233.854 180.327 231.779C180.327 230.909 180.327 229.871 180.327 228.666C180.411 227.595 180.453 226.792 180.453 226.257C180.453 225.52 180.369 224.884 180.201 224.349C179.866 223.613 179.699 223.111 179.699 222.843C179.699 222.575 179.95 222.106 180.453 221.437H182.714L183.217 219.831L181.206 219.429V218.726C181.29 217.856 181.625 217.053 182.212 216.316L183.845 214.509C183.845 214.375 184.347 214.208 185.352 214.007L185.729 212.702L182.84 211.698L183.845 208.886C182.672 209.489 181.625 209.79 180.704 209.79C179.531 209.79 178.945 209.087 178.945 207.682C178.945 207.548 179.113 206.142 179.448 203.465V203.364L178.819 195.332V191.115C178.819 190.311 178.778 189.341 178.694 188.203C178.694 187.533 178.694 187.065 178.694 186.797C178.694 185.325 179.071 183.417 179.825 181.074L178.317 179.769V171.033C178.819 170.9 179.071 170.799 179.071 170.732C179.155 170.598 179.238 169.762 179.322 168.222C178.149 166.549 177.563 165.377 177.563 164.708C177.563 164.373 177.563 163.972 177.563 163.503C176.391 162.365 175.804 161.629 175.804 161.294L175.679 157.378C175.427 155.437 175.26 154.165 175.176 153.563C175.092 152.693 174.422 151.622 173.166 150.35L170.905 149.948L169.648 146.936C171.491 146.2 172.705 145.698 173.292 145.43C175.302 144.627 177.312 144.158 179.322 144.024L181.458 143.221L183.845 142.317L185.855 140.711L187.362 140.209C191.634 138.736 194.858 138 197.036 138C198.879 138 199.8 138.636 199.8 139.908V142.92L200.554 145.43C199.465 146.635 198.921 147.672 198.921 148.543C198.921 149.279 199.004 150.249 199.172 151.454C199.256 152.659 199.381 154.433 199.549 156.776H199.926V157.479C198.753 157.746 197.874 157.88 197.287 157.88C196.785 157.88 196.073 157.813 195.152 157.68L194.649 158.081C194.482 159.286 193.518 160.257 191.76 160.993L194.523 164.407L197.664 164.005L199.549 166.616H200.805L201.182 166.816C200.009 168.423 198.041 170.297 195.277 172.439L193.77 179.066L187.865 184.287L189.624 188.203L190.755 201.456C191.006 201.925 192.43 202.594 195.026 203.465C197.455 204.268 198.669 205.104 198.669 205.975C198.669 205.975 198.627 206.042 198.544 206.175C198.46 206.51 198.251 207.046 197.916 207.782L196.031 208.083C197.957 209.489 198.921 211.966 198.921 215.513C198.921 216.852 197.622 218.124 195.026 219.329C195.947 220.801 196.617 221.772 197.036 222.24C198.292 224.115 198.921 225.621 198.921 226.759C198.921 226.826 198.544 227.93 197.79 230.072L197.916 230.875C197.916 230.875 197.916 230.909 197.916 230.976C197.832 231.176 197.79 231.745 197.79 232.683C197.874 238.372 197.832 242.154 197.664 244.028C197.664 244.631 197.664 245.434 197.664 246.438C197.664 248.245 197.706 250.019 197.79 251.76C197.874 252.362 197.916 252.898 197.916 253.366C197.916 253.701 197.79 254.102 197.539 254.571L197.413 254.169L194.775 255.675C195.11 257.751 196.199 259.491 198.041 260.897L197.664 262.001L198.167 276.259L198.292 277.865C198.292 278.601 198.292 279.204 198.292 279.672C198.292 280.476 197.664 283.12 196.408 287.604L196.031 292.926L194.775 294.432C194.691 294.566 194.607 295.202 194.523 296.34C194.105 298.214 193.812 299.754 193.644 300.958L196.534 300.657C197.371 302.598 197.79 303.703 197.79 303.971L197.539 319.734C197.539 321.14 198.46 322.044 200.303 322.445C201.726 322.713 202.983 323.215 204.071 323.951C204.909 323.884 205.621 323.851 206.207 323.851C206.794 323.851 208.134 324.085 210.227 324.554L215.127 324.955L223.544 326.461H230.957L234.977 330.98L245.404 326.963L249.801 327.566L253.194 327.867L256.586 328.771C256.669 328.771 258.219 328.57 261.234 328.168C261.736 328.101 262.197 328.068 262.616 328.068C263.286 328.068 265.17 328.369 268.269 328.972C272.29 328.436 274.425 328.168 274.677 328.168C275.849 328.168 277.943 328.302 280.958 328.57C282.047 328.637 283.052 328.67 283.973 328.67C285.062 328.67 286.947 328.436 289.627 327.968L295.783 327.566C299.719 326.963 303.907 326.528 308.346 326.261C310.188 326.194 311.445 326.026 312.115 325.759C313.287 325.424 314.167 325.257 314.753 325.257C315.004 325.257 316.177 326.83 318.271 329.976C318.355 330.043 318.48 330.076 318.648 330.076C319.82 330.076 320.993 329.206 322.165 327.466C322.752 326.595 323.045 325.089 323.045 322.947C325.892 322.345 327.777 321.876 328.698 321.542C333.891 319.667 337.116 318.73 338.372 318.73C338.372 318.73 338.581 318.764 339 318.831C338.916 320.839 338.623 322.111 338.121 322.646L336.11 324.755L331.713 329.875C329.955 331.214 328.531 332.452 327.442 333.59H324.427L323.045 335.598L315.13 330.779L298.295 335.699C298.295 335.699 297.96 335.598 297.29 335.398C295.866 335.063 293.019 334.896 288.747 334.896H288.37C287.7 334.896 280.874 335.264 267.892 336L259.601 335.096C256.586 335.498 255.036 335.699 254.952 335.699C253.11 335.699 251.393 335.096 249.801 333.891C247.038 331.883 245.614 330.879 245.53 330.879L232.464 334.896L229.323 334.394L226.308 334.193L223.168 333.891C217.64 333.758 214.248 333.624 212.991 333.49L214.373 332.787H209.097L208.343 334.896C206.752 334.226 205.705 333.724 205.202 333.389C203.946 332.787 202.48 332.385 200.805 332.185C198.125 333.992 195.11 334.896 191.76 334.896C189.833 334.896 187.488 334.695 184.724 334.293C182.63 335.431 180.411 336 178.066 336C177.396 336 175.972 335.766 173.794 335.297C170.36 334.829 167.429 334.293 165 333.691Z" stroke="white" stroke-width="12" mask="url(#path-3-outside-2_209_7)"/>
</svg>
