<svg width="30" height="30" viewBox="0 0 30 30" fill="none" xmlns="http://www.w3.org/2000/svg">
<path fill-rule="evenodd" clip-rule="evenodd" d="M1.37952 0.566618L0 1.38764L0.0135246 1.45701C0.0315575 1.6112 0.284018 1.70756 0.770907 1.74611C0.725825 1.94654 0.703284 2.09687 0.703284 2.19709C0.703284 2.3821 0.825006 2.56713 1.06845 2.75214C1.03239 2.86007 0.955745 2.96414 0.838531 3.06436C0.89263 3.35731 0.937713 3.76203 0.973778 4.27854C0.991812 4.664 1.01886 4.91455 1.05493 5.03017C1.16312 5.02247 1.28034 4.9685 1.40657 4.86828V5.36553C1.28935 5.38865 1.18116 5.4349 1.08198 5.50429C1.08198 5.62764 1.10903 5.73556 1.16312 5.82807C1.10903 5.88974 1.06394 5.96684 1.02788 6.05934C1.00984 6.1056 0.96927 6.19426 0.906155 6.3253C1.01435 6.46407 1.08648 6.59513 1.12255 6.71847C1.14058 6.83411 1.1496 7.10778 1.1496 7.53948L1.19017 7.90952L1.17665 8.2333C1.16763 8.51083 1.12706 8.72283 1.05493 8.8693L1.46067 9.04275C1.46067 9.13526 1.42009 9.23162 1.33895 9.33184C1.29386 9.39351 1.27132 9.60167 1.27132 9.95629L1.23075 10.1529L1.2578 10.5807V10.5923L1.19017 11.2283C1.19017 11.5829 1.23526 12.057 1.32542 12.6506L1.75821 12.6044C1.73116 12.7431 1.64551 12.8742 1.50124 12.9975V13.09H1.44714L1.35247 13.0091H1.24427L1.1496 13.09C1.3119 13.2442 1.57788 13.4099 1.94755 13.5873L1.21722 14.2694L1.13607 16.0272C1.13607 16.0735 1.06845 16.3124 0.933205 16.7441C0.915171 16.8135 0.906155 16.8752 0.906155 16.9291C0.906155 16.9677 0.960253 17.091 1.06845 17.2993L1.0414 17.5652L1.05493 18.6752L1.01435 19.1031L2.02871 19.5772L0.906155 20.0744L0.946728 20.5486C0.955745 20.6642 0.87009 20.7838 0.68976 20.907L0.568038 20.988L1.87994 21.6008L0.459839 22.2947L0.473364 22.3641V22.4797V22.5144C0.473364 22.5837 0.446316 22.7225 0.392216 22.9306C0.53648 22.9769 0.658202 23 0.757382 23C0.838531 23 1.01886 22.9037 1.29837 22.7109C1.46067 22.6108 1.72214 22.5105 2.08281 22.4103L2.02871 22.26C2.20903 22.1134 2.44797 22.0403 2.74552 22.0403C2.81765 21.8861 2.97995 21.7473 3.23241 21.6239C3.24142 21.5777 3.24593 21.5469 3.24593 21.5314C3.24593 21.4698 3.2279 21.3811 3.19182 21.2655C3.14674 21.1499 3.12872 21.0613 3.13773 20.9995C3.13773 20.6372 3.08813 20.4561 2.98896 20.4561C2.91683 20.4561 2.81314 20.51 2.67789 20.618L2.55617 20.3058L2.82666 20.1669C2.94387 20.0205 3.00699 19.9049 3.016 19.82L3.00248 19.6119C2.99347 19.3036 2.97092 19.1069 2.93486 19.0222C2.51109 19.0144 2.2992 18.868 2.2992 18.5827C2.2992 18.5442 2.32175 18.5057 2.36683 18.4671H2.48854C2.61478 18.5827 2.72297 18.6405 2.81314 18.6405C2.91231 18.6405 2.96642 18.5674 2.97543 18.4208C2.97543 17.6114 3.02052 17.0486 3.11068 16.7325C3.02953 16.6555 2.89429 16.6093 2.70495 16.5938C2.75904 16.4627 2.79961 16.351 2.82666 16.2585C2.83569 16.2199 2.88527 16.1621 2.97543 16.085C3.02953 16.0388 3.05659 15.9847 3.05659 15.9232L3.04305 15.553V15.1252C2.98896 14.678 2.96191 14.4276 2.96191 14.3737C2.96191 14.3119 2.96642 14.2502 2.97543 14.1885C3.01151 13.9804 3.02953 13.8417 3.02953 13.7723V13.5526L2.70495 13.5757V13.4948C2.70495 13.3945 2.74552 13.3097 2.82666 13.2404C2.91683 13.171 3.02503 13.1363 3.15125 13.1363C3.31355 13.1363 3.45781 13.1864 3.58405 13.2866C3.92667 13.5796 4.15209 13.7453 4.26027 13.7838C4.35044 13.8147 4.49472 13.8301 4.69307 13.8301C4.7652 14.0074 4.82832 14.1346 4.88242 14.2116C4.91849 14.2579 5.03119 14.3621 5.22053 14.524L5.78857 15.0674C6.02299 15.2293 6.20784 15.3643 6.34309 15.4721C6.42423 15.4644 6.49185 15.4605 6.54596 15.4605C6.61809 15.4605 6.83448 15.5261 7.19513 15.6571C7.123 15.8113 7.0599 15.9847 7.00579 16.1775C7.50171 16.4319 7.92097 16.6593 8.2636 16.8597C8.44392 16.9214 8.57465 16.9947 8.65581 17.0794C8.67385 17.1026 8.7595 17.1797 8.91277 17.3108L9.53491 17.8658C10.1661 18.2744 10.5583 18.5288 10.7116 18.6289C11.1985 18.9374 11.514 19.0916 11.6583 19.0916H11.7124L12.0505 19.0453C12.0956 19.0453 12.1542 19.0685 12.2263 19.1147C12.3255 19.1763 12.3841 19.2458 12.4022 19.3228C12.4653 19.5617 12.5103 19.7044 12.5374 19.7506C12.6298 19.8876 12.7306 19.9777 12.8398 20.0211C12.9208 20.3606 12.9612 20.5496 12.9612 20.5882L12.8937 21.6082L12.9342 22.1413C12.9342 22.1877 12.9027 22.3036 12.8396 22.4892L12.9477 22.5819L13.3396 22.5008V22.8137C13.5558 22.9759 13.6639 23.0879 13.6639 23.1498C13.6639 23.1806 13.6503 23.2193 13.6233 23.2657L13.5828 23.2773L13.3531 23.2425L13.218 23.312C13.0468 23.3816 12.9612 23.4782 12.9612 23.6018V23.9496V23.9728C12.9612 24.0887 12.8937 24.2895 12.7585 24.5755L12.7315 24.9116L12.691 25.3056L13.826 26.2561L12.664 26.8937L13.799 27.1255C13.5017 27.3573 13.3125 27.5311 13.2315 27.647C12.9162 27.9947 12.6099 28.3424 12.3126 28.6902C12.2586 28.7366 12.2316 28.779 12.2316 28.8177C12.2316 28.8796 12.2406 28.9452 12.2586 29.0147C11.9613 29.2234 11.7496 29.3663 11.6235 29.4436C11.4794 29.5363 11.3668 29.6329 11.2857 29.7333C11.547 29.8028 11.8622 29.8647 12.2316 29.9189C12.4658 29.9729 12.6189 30 12.691 30C12.9432 30 13.1819 29.9342 13.4071 29.8028C13.7044 29.8493 13.9566 29.8725 14.1638 29.8725C14.5241 29.8725 14.8484 29.7681 15.1367 29.5595C15.3168 29.5826 15.4745 29.629 15.6096 29.6985C15.6636 29.7372 15.7763 29.7952 15.9474 29.8725L16.0285 29.629H16.596L16.4474 29.7101C16.5825 29.7256 16.9473 29.7411 17.5418 29.7565L17.8796 29.7913L18.2039 29.8144L18.5417 29.8725L19.947 29.4088C19.956 29.4088 20.1091 29.5247 20.4064 29.7565C20.5776 29.8957 20.7622 29.9652 20.9604 29.9652C20.9694 29.9652 21.1361 29.9421 21.4603 29.8957L22.3521 30C23.7484 29.915 24.4826 29.8725 24.5546 29.8725H24.5952C25.0546 29.8725 25.3608 29.8918 25.514 29.9305L25.6221 29.9652L27.4326 29.3972L28.284 29.9536L28.4326 29.7217H28.7569C28.8741 29.5905 29.0271 29.4475 29.2162 29.2929L29.6893 28.7018L29.9054 28.4584C29.9595 28.3966 29.9911 28.2497 30 28.0179L29.9325 28.0063C29.7973 28.0063 29.4505 28.1145 28.892 28.3308C28.793 28.3695 28.5902 28.4237 28.284 28.4932C28.284 28.7404 28.2524 28.9143 28.1894 29.0147C28.0632 29.2157 27.9371 29.3161 27.8111 29.3161C27.793 29.3161 27.7795 29.3122 27.7706 29.3045C27.5453 28.9413 27.4192 28.7598 27.3922 28.7598C27.3291 28.7598 27.2345 28.779 27.1084 28.8177C27.0364 28.8486 26.9012 28.868 26.703 28.8757C26.2256 28.9065 25.7752 28.9568 25.3518 29.0263L24.6897 29.0727C24.4015 29.1267 24.1988 29.1538 24.0817 29.1538C23.9826 29.1538 23.8745 29.1499 23.7574 29.1422C23.4331 29.1114 23.2079 29.0959 23.0818 29.0959C23.0548 29.0959 22.8251 29.1267 22.3927 29.1886C22.0594 29.119 21.8567 29.0843 21.7846 29.0843C21.7396 29.0843 21.69 29.0882 21.636 29.0959C21.3117 29.1422 21.1451 29.1654 21.1361 29.1654L20.7712 29.0611L20.4064 29.0263L19.9335 28.9568L18.812 29.4204L18.3796 28.8988H17.5824L16.6771 28.725L16.1501 28.6786C15.9249 28.6245 15.7807 28.5975 15.7177 28.5975C15.6546 28.5975 15.5781 28.6013 15.488 28.6091C15.3709 28.5241 15.2358 28.4661 15.0826 28.4353C14.8845 28.3889 14.7854 28.2844 14.7854 28.1222L14.8124 26.3025C14.8124 26.2716 14.7674 26.1441 14.6773 25.92L14.3665 25.9548C14.3845 25.8157 14.416 25.6379 14.4611 25.4216C14.4701 25.2903 14.4791 25.2168 14.4881 25.2013L14.6232 25.0275L14.6638 24.4132C14.7989 23.8954 14.8664 23.5902 14.8664 23.4975V23.2889L14.8529 23.1034L14.7989 21.4575L14.8394 21.3301C14.6412 21.1678 14.5241 20.9669 14.4881 20.7273L14.5076 20.7154C14.558 20.7527 14.609 20.7934 14.6608 20.8377L14.8772 20.9302L15.1747 21.2077C15.2108 21.2463 15.355 21.3156 15.6075 21.4158C15.6616 21.4236 15.8374 21.5045 16.135 21.6586C16.3964 21.7897 16.5857 21.8669 16.703 21.89C16.8564 21.9284 17.0501 22.0056 17.2845 22.1212C17.6813 22.2831 17.9203 22.3911 18.0014 22.445C18.1276 22.5144 18.3214 22.6416 18.583 22.8266L19.0698 22.7688C19.1871 22.8459 19.2591 22.8883 19.2862 22.8959C19.3223 22.9037 19.4665 22.9191 19.7191 22.9422L20.0166 22.9769C20.269 22.8459 20.4088 22.7766 20.4358 22.7688C20.517 22.738 20.6882 22.7148 20.9497 22.6994L21.1661 22.4566C22.0588 22.2947 22.478 22.0364 22.4239 21.6817L22.3834 21.5892C22.3203 21.5277 22.2797 21.4967 22.2616 21.4967L21.315 21.6124H21.2608C21.0084 21.6124 20.7017 21.5816 20.3412 21.5199C19.9804 21.4583 19.692 21.385 19.4755 21.3002L19.1915 21.5083C18.9932 21.4081 18.7633 21.3311 18.5018 21.277C18.4658 21.092 18.4161 20.9764 18.3531 20.9302C18.326 20.907 17.812 20.6372 16.8112 20.1207C16.6309 19.9742 16.4234 19.8778 16.1891 19.8316C15.9186 19.7853 15.6886 19.7314 15.4993 19.6697C15.2919 19.6311 15.1657 19.5964 15.1206 19.5656V19.3575C15.0405 19.3302 14.9354 19.3058 14.8054 19.2844C14.8178 19.046 14.8202 18.6422 14.8124 18.073C14.8124 17.9648 14.8169 17.8991 14.8259 17.876V17.8644L14.8124 17.7716C14.8935 17.5244 14.934 17.3969 14.934 17.3891C14.934 17.2578 14.8664 17.0839 14.7313 16.8676C14.6863 16.8135 14.6142 16.7014 14.5151 16.5314C14.7944 16.3923 14.934 16.2455 14.934 16.091C14.934 15.6814 14.8304 15.3955 14.6232 15.2333L14.8259 15.1985C14.8619 15.1135 14.8845 15.0517 14.8935 15.013L14.907 14.9898C14.907 14.8894 14.7764 14.7928 14.5151 14.7001C14.2359 14.5996 14.0827 14.5223 14.0557 14.4683L13.9341 12.9383L13.7449 12.4862L14.38 11.8835L14.5421 11.1185C14.8394 10.8712 15.0511 10.6549 15.1772 10.4694L15.1367 10.4462H15.0016L14.7989 10.1449L14.4611 10.1913L14.1638 9.79716C14.353 9.71216 14.4566 9.60012 14.4746 9.46103L14.5286 9.41466C14.6277 9.43012 14.7043 9.43785 14.7583 9.43785C14.8214 9.43785 14.916 9.42239 15.0421 9.39148V9.31035H15.0016C14.9835 9.03989 14.97 8.83512 14.961 8.69602C14.943 8.55695 14.934 8.4449 14.934 8.3599C14.934 8.25944 14.9925 8.13967 15.1096 8.00058L15.0286 7.71081V7.36309C15.0286 7.21627 14.9295 7.14286 14.7313 7.14286C14.4971 7.14286 14.1503 7.22786 13.6909 7.39786L13.5287 7.45581L13.3125 7.64127L13.0558 7.74559L12.8261 7.83831C12.6099 7.85377 12.3937 7.90786 12.1775 8.00058C12.1145 8.03149 11.9839 8.08945 11.7857 8.17445L11.9208 8.52217L12.164 8.56854C12.2991 8.71535 12.3712 8.83898 12.3802 8.93944C12.3892 9.00899 12.4072 9.1558 12.4343 9.37989L12.4478 9.83193C12.4478 9.87057 12.5108 9.95556 12.6369 10.0869V10.226C12.6369 10.3033 12.7 10.4385 12.8261 10.6317C12.8171 10.8094 12.8081 10.906 12.7991 10.9215C12.7991 10.9292 12.7721 10.9408 12.718 10.9562V11.9646L12.8801 12.1153C12.7991 12.3858 12.7585 12.606 12.7585 12.776V12.9383C12.7676 13.0696 12.7721 13.1817 12.7721 13.2744V13.7612L12.8396 14.6885V14.7001C12.8036 15.0092 12.7856 15.1714 12.7856 15.1869C12.7856 15.3492 12.8486 15.4303 12.9747 15.4303C13.0738 15.4303 13.1864 15.3955 13.3125 15.326L13.2044 15.6505L13.5152 15.7664L13.4747 15.9171C13.3666 15.9403 13.3125 15.9596 13.3125 15.9751L13.1369 16.1837C13.0738 16.2687 13.0378 16.3614 13.0288 16.4619V16.543L13.245 16.5894L13.1909 16.7748H12.9477C12.8937 16.8521 12.8666 16.9062 12.8666 16.9371C12.8666 16.968 12.8847 17.026 12.9207 17.111C12.9387 17.1728 12.9477 17.2462 12.9477 17.3312C12.9477 17.393 12.9432 17.4857 12.9342 17.6094V17.9281L12.4157 17.6114C11.9017 17.2877 11.5095 16.9947 11.239 16.7325H10.955C10.7747 16.5399 10.671 16.4589 10.6439 16.4897L10.3329 16.4204L9.94065 16.1891C9.67017 16.0657 9.4673 15.9501 9.33205 15.8422C9.41319 15.7265 9.45376 15.6302 9.45376 15.553C9.45376 15.4066 9.28245 15.2254 8.93983 15.0096C8.84967 14.9557 8.74598 14.9248 8.62876 14.9171C8.5386 14.7629 8.38531 14.5971 8.16892 14.4199C7.95253 14.2271 7.79474 14.1191 7.69555 14.096C7.60538 14.0807 7.46112 14.0729 7.26277 14.0729C7.27178 14.0035 7.27629 13.9457 7.27629 13.8995C7.27629 13.6759 7.13653 13.4254 6.85701 13.1478L5.57218 11.8296L5.55865 11.7833C5.54964 11.7679 5.54513 11.7564 5.54513 11.7486C5.54513 11.7178 5.61275 11.6369 5.748 11.5058C5.77504 11.475 5.83365 11.4094 5.92382 11.3092L6.28898 11.2745C6.3521 11.1049 6.4017 11.0047 6.43776 10.9739C6.47383 10.943 6.61809 10.8582 6.87055 10.7195C7.123 10.3572 7.27178 10.1567 7.31686 10.1182C7.36194 10.0719 7.49268 9.99483 7.70907 9.8869L7.80375 9.56312C7.97506 9.41665 8.25007 9.12756 8.62876 8.69585L9.35909 8.01359C9.91812 7.35061 10.423 6.82639 10.8739 6.44094C11.1263 6.26363 11.2706 6.14415 11.3066 6.08246C11.3427 6.03621 11.3608 5.93985 11.3608 5.79338C11.514 5.70857 11.5997 5.65462 11.6177 5.63148C11.6358 5.60065 11.7034 5.44647 11.8206 5.16894L12.2534 4.89141L12.5509 4.61389C12.623 4.55993 12.6726 4.47897 12.6997 4.37105C12.8981 4.20916 13.0378 4.0781 13.119 3.97788C13.2272 3.85454 13.2813 3.69651 13.2813 3.50378L13.0513 3.42283L13.0919 2.91403L13.9169 2.98342C14.0341 2.86007 14.1559 2.68661 14.2821 2.46305C14.3452 2.37054 14.5751 2.10843 14.9718 1.67673L15.4046 1.36451C15.4136 1.34909 15.5083 1.18334 15.6886 0.867272C15.878 0.636 15.9727 0.497236 15.9727 0.450981V0.439417L15.8645 0.277527C15.7292 0.277527 15.5669 0.343054 15.3776 0.474109C15.2243 0.582036 15.1026 0.636 15.0124 0.636C14.8952 0.643708 14.8276 0.655272 14.8095 0.67069C14.7825 0.686109 14.6382 0.774763 14.3768 0.936654L14.0792 1.13324C14.0251 1.17178 13.8763 1.20647 13.6329 1.23731C13.5247 1.38378 13.3714 1.59964 13.1731 1.88487C12.9837 2.1624 12.7583 2.41294 12.4968 2.6365L12.1317 3.20312L11.9017 3.49222L11.6312 3.88538C11.4689 4.10123 11.3743 4.2824 11.3472 4.42886L11.1173 4.48669C10.5493 5.06487 10.1931 5.48887 10.0489 5.75868V5.77025L10.2112 5.9784C9.88656 6.34072 9.65664 6.58357 9.52139 6.70691C9.33205 6.85338 9.16524 7.00756 9.02098 7.16945L7.61441 8.70741L7.42506 9.07745L5.40988 10.8814L5.00414 11.2977L4.93651 11.263C4.78324 11.3401 4.44512 11.5405 3.92217 11.8643C3.86806 11.9028 3.63363 11.9953 3.21887 12.1418L3.12421 12.0609V11.8411L2.93486 11.7602C2.93486 11.5598 2.91683 11.2591 2.88077 10.8582L2.90782 10.2685L2.86723 9.89846L2.97543 9.49373C2.85822 9.29329 2.78609 9.11214 2.75904 8.95025C2.56067 8.79606 2.46149 8.66116 2.46149 8.54552C2.46149 8.47614 2.48404 8.42218 2.52911 8.38363L2.85371 8.12923C2.89879 8.0984 2.92584 7.80931 2.93486 7.26195L2.96191 6.77628L2.92134 4.45199C2.92134 4.40574 2.93486 4.34793 2.96191 4.27854C2.97995 4.20916 2.98896 4.1629 2.98896 4.13977C2.98896 4.0704 2.93938 3.97788 2.84018 3.86225L2.58322 4.02415H2.51559L2.43445 3.81599V3.45753L2.38035 3.14531L2.74552 3.20312L3.16478 2.75214C3.11068 2.45149 3.08364 2.22407 3.08364 2.06988C3.08364 1.96196 3.12421 1.71142 3.20535 1.31825V0.740073L3.23241 0.346909C3.23241 0.277527 3.19634 0.204291 3.12421 0.1272C3.05208 0.0655273 2.96642 0.0346908 2.86723 0.0346908H2.78609C2.71396 0.0424 2.65535 0.0462545 2.61027 0.0462545L2.36683 0C2.15042 0.185018 1.85739 0.381599 1.48772 0.589744L1.37952 0.566618Z" fill="#F1E9D9"/>
</svg>
